{
    "asset" : {
        "generator" : "Khronos glTF Blender I/O v3.2.43",
        "version" : "2.0"
    },
    "scene" : 0,
    "scenes" : [
        {
            "name" : "Scene",
            "nodes" : [
                0
            ]
        }
    ],
    "nodes" : [
        {
            "mesh" : 0,
            "name" : "Torus"
        }
    ],
    "meshes" : [
        {
            "name" : "Torus",
            "primitives" : [
                {
                    "attributes" : {
                        "POSITION" : 0,
                        "NORMAL" : 1
                    },
                    "indices" : 2
                }
            ]
        }
    ],
    "accessors" : [
        {
            "bufferView" : 0,
            "componentType" : 5126,
            "count" : 20484,
            "max" : [
                1.307286262512207,
                0.33233341574668884,
                1.3159468173980713
            ],
            "min" : [
                -1.299666166305542,
                -0.34647125005722046,
                -1.3036803007125854
            ],
            "type" : "VEC3"
        },
        {
            "bufferView" : 1,
            "componentType" : 5126,
            "count" : 20484,
            "type" : "VEC3"
        },
        {
            "bufferView" : 2,
            "componentType" : 5123,
            "count" : 21636,
            "type" : "SCALAR"
        }
    ],
    "bufferViews" : [
        {
            "buffer" : 0,
            "byteLength" : 245808,
            "byteOffset" : 0
        },
        {
            "buffer" : 0,
            "byteLength" : 245808,
            "byteOffset" : 245808
        },
        {
            "buffer" : 0,
            "byteLength" : 43272,
            "byteOffset" : 491616
        }
    ],
    "buffers" : [
        {
            "byteLength" : 534888,
            "uri" : "data:application/octet-stream;base64,"
        }
    ]
}
