{
    "asset" : {
        "generator" : "Khronos glTF Blender I/O v3.2.43",
        "version" : "2.0"
    },
    "scene" : 0,
    "scenes" : [
        {
            "name" : "Scene",
            "nodes" : [
                0
            ]
        }
    ],
    "nodes" : [
        {
            "mesh" : 0,
            "name" : "Chair"
        }
    ],
    "meshes" : [
        {
            "name" : "Plane.001",
            "primitives" : [
                {
                    "attributes" : {
                        "POSITION" : 0,
                        "NORMAL" : 1
                    },
                    "indices" : 2
                }
            ]
        }
    ],
    "accessors" : [
        {
            "bufferView" : 0,
            "componentType" : 5126,
            "count" : 3522,
            "max" : [
                0.980785071849823,
                3.1855359077453613,
                0.9004737138748169
            ],
            "min" : [
                -0.9807842373847961,
                0.012796521186828613,
                -0.9256325364112854
            ],
            "type" : "VEC3"
        },
        {
            "bufferView" : 1,
            "componentType" : 5126,
            "count" : 3522,
            "type" : "VEC3"
        },
        {
            "bufferView" : 2,
            "componentType" : 5123,
            "count" : 15996,
            "type" : "SCALAR"
        }
    ],
    "bufferViews" : [
        {
            "buffer" : 0,
            "byteLength" : 42264,
            "byteOffset" : 0
        },
        {
            "buffer" : 0,
            "byteLength" : 42264,
            "byteOffset" : 42264
        },
        {
            "buffer" : 0,
            "byteLength" : 31992,
            "byteOffset" : 84528
        }
    ],
    "buffers" : [
        {
            "byteLength" : 116520,
            "uri" : "data:application/octet-stream;base64,"
        }
    ]
}
