{
    "asset" : {
        "generator" : "Khronos glTF Blender I/O v3.2.43",
        "version" : "2.0"
    },
    "scene" : 0,
    "scenes" : [
        {
            "name" : "Scene",
            "nodes" : [
                0,
                1
            ]
        }
    ],
    "nodes" : [
        {
            "mesh" : 0,
            "name" : "Cup",
            "translation" : [
                0,
                1,
                0
            ]
        },
        {
            "mesh" : 1,
            "name" : "Handle",
            "rotation" : [
                -0.6702509522438049,
                0,
                0,
                0.7421345710754395
            ],
            "scale" : [
                0.42108607292175293,
                0.4222927391529083,
                0.5190927982330322
            ],
            "translation" : [
                1.026997447013855,
                1.189631462097168,
                0
            ]
        }
    ],
    "materials" : [
        {
            "doubleSided" : true,
            "name" : "Material",
            "pbrMetallicRoughness" : {
                "baseColorFactor" : [
                    0,
                    0.08335104584693909,
                    0.8000000715255737,
                    1
                ],
                "metallicFactor" : 0,
                "roughnessFactor" : 0.4000000059604645
            }
        }
    ],
    "meshes" : [
        {
            "name" : "Cylinder",
            "primitives" : [
                {
                    "attributes" : {
                        "POSITION" : 0,
                        "NORMAL" : 1,
                        "TEXCOORD_0" : 2
                    },
                    "indices" : 3,
                    "material" : 0
                }
            ]
        },
        {
            "name" : "Torus",
            "primitives" : [
                {
                    "attributes" : {
                        "POSITION" : 4,
                        "NORMAL" : 5,
                        "TEXCOORD_0" : 6
                    },
                    "indices" : 7,
                    "material" : 0
                }
            ]
        }
    ],
    "accessors" : [
        {
            "bufferView" : 0,
            "componentType" : 5126,
            "count" : 1309,
            "max" : [
                1,
                1,
                1
            ],
            "min" : [
                -1,
                -1,
                -1
            ],
            "type" : "VEC3"
        },
        {
            "bufferView" : 1,
            "componentType" : 5126,
            "count" : 1309,
            "type" : "VEC3"
        },
        {
            "bufferView" : 2,
            "componentType" : 5126,
            "count" : 1309,
            "type" : "VEC2"
        },
        {
            "bufferView" : 3,
            "componentType" : 5123,
            "count" : 4980,
            "type" : "SCALAR"
        },
        {
            "bufferView" : 4,
            "componentType" : 5126,
            "count" : 376,
            "max" : [
                1.25,
                0.25,
                1.25
            ],
            "min" : [
                -0.31485486030578613,
                -0.25,
                -1.25
            ],
            "type" : "VEC3"
        },
        {
            "bufferView" : 5,
            "componentType" : 5126,
            "count" : 376,
            "type" : "VEC3"
        },
        {
            "bufferView" : 6,
            "componentType" : 5126,
            "count" : 376,
            "type" : "VEC2"
        },
        {
            "bufferView" : 7,
            "componentType" : 5123,
            "count" : 1980,
            "type" : "SCALAR"
        }
    ],
    "bufferViews" : [
        {
            "buffer" : 0,
            "byteLength" : 15708,
            "byteOffset" : 0
        },
        {
            "buffer" : 0,
            "byteLength" : 15708,
            "byteOffset" : 15708
        },
        {
            "buffer" : 0,
            "byteLength" : 10472,
            "byteOffset" : 31416
        },
        {
            "buffer" : 0,
            "byteLength" : 9960,
            "byteOffset" : 41888
        },
        {
            "buffer" : 0,
            "byteLength" : 4512,
            "byteOffset" : 51848
        },
        {
            "buffer" : 0,
            "byteLength" : 4512,
            "byteOffset" : 56360
        },
        {
            "buffer" : 0,
            "byteLength" : 3008,
            "byteOffset" : 60872
        },
        {
            "buffer" : 0,
            "byteLength" : 3960,
            "byteOffset" : 63880
        }
    ],
    "buffers" : [
        {
            "byteLength" : 67840,
            "uri" : "data:application/octet-stream;base64,"
        }
    ]
}
