{
    "asset" : {
        "generator" : "Khronos glTF Blender I/O v3.2.43",
        "version" : "2.0"
    },
    "scene" : 0,
    "scenes" : [
        {
            "name" : "Scene",
            "nodes" : [
                0
            ]
        }
    ],
    "nodes" : [
        {
            "mesh" : 0,
            "name" : "Cup",
            "rotation" : [
                -0.6702509522438049,
                0,
                0,
                0.7421345710754395
            ],
            "scale" : [
                0.42108607292175293,
                0.4222927391529083,
                0.5190927982330322
            ],
            "translation" : [
                1.026997447013855,
                1.189631462097168,
                0
            ]
        }
    ],
    "materials" : [
        {
            "doubleSided" : true,
            "name" : "Material",
            "pbrMetallicRoughness" : {
                "baseColorFactor" : [
                    0.0566718652844429,
                    0.10271329432725906,
                    0.8000000715255737,
                    1
                ],
                "metallicFactor" : 0,
                "roughnessFactor" : 0.4000000059604645
            }
        }
    ],
    "meshes" : [
        {
            "name" : "Torus",
            "primitives" : [
                {
                    "attributes" : {
                        "POSITION" : 0,
                        "NORMAL" : 1,
                        "TEXCOORD_0" : 2
                    },
                    "indices" : 3,
                    "material" : 0
                }
            ]
        }
    ],
    "accessors" : [
        {
            "bufferView" : 0,
            "componentType" : 5126,
            "count" : 1725,
            "max" : [
                1.25,
                2.544508695602417,
                1.743363380432129
            ],
            "min" : [
                -4.813736915588379,
                -2.6418001651763916,
                -2.4754951000213623
            ],
            "type" : "VEC3"
        },
        {
            "bufferView" : 1,
            "componentType" : 5126,
            "count" : 1725,
            "type" : "VEC3"
        },
        {
            "bufferView" : 2,
            "componentType" : 5126,
            "count" : 1725,
            "type" : "VEC2"
        },
        {
            "bufferView" : 3,
            "componentType" : 5123,
            "count" : 6960,
            "type" : "SCALAR"
        }
    ],
    "bufferViews" : [
        {
            "buffer" : 0,
            "byteLength" : 20700,
            "byteOffset" : 0
        },
        {
            "buffer" : 0,
            "byteLength" : 20700,
            "byteOffset" : 20700
        },
        {
            "buffer" : 0,
            "byteLength" : 13800,
            "byteOffset" : 41400
        },
        {
            "buffer" : 0,
            "byteLength" : 13920,
            "byteOffset" : 55200
        }
    ],
    "buffers" : [
        {
            "byteLength" : 69120,
            "uri" : "data:application/octet-stream;base64,"
        }
    ]
}
