{
    "asset" : {
        "generator" : "Khronos glTF Blender I/O v3.2.43",
        "version" : "2.0"
    },
    "scene" : 0,
    "scenes" : [
        {
            "name" : "Scene",
            "nodes" : [
                0
            ]
        }
    ],
    "nodes" : [
        {
            "mesh" : 0,
            "name" : "Cube"
        }
    ],
    "materials" : [
        {
            "doubleSided" : true,
            "name" : "Material 1",
            "pbrMetallicRoughness" : {
                "baseColorFactor" : [
                    0.025558169931173325,
                    0.04999857023358345,
                    0.8000000715255737,
                    1
                ],
                "metallicFactor" : 0,
                "roughnessFactor" : 0.4000000059604645
            }
        }
    ],
    "meshes" : [
        {
            "name" : "Cube",
            "primitives" : [
                {
                    "attributes" : {
                        "POSITION" : 0,
                        "NORMAL" : 1
                    },
                    "indices" : 2,
                    "material" : 0
                }
            ]
        }
    ],
    "accessors" : [
        {
            "bufferView" : 0,
            "componentType" : 5126,
            "count" : 17728,
            "max" : [
                1.5712602138519287,
                1.5885356664657593,
                1.5912994146347046
            ],
            "min" : [
                -1.5853447914123535,
                -1.5772881507873535,
                -1.5684458017349243
            ],
            "type" : "VEC3"
        },
        {
            "bufferView" : 1,
            "componentType" : 5126,
            "count" : 17728,
            "type" : "VEC3"
        },
        {
            "bufferView" : 2,
            "componentType" : 5123,
            "count" : 25758,
            "type" : "SCALAR"
        }
    ],
    "bufferViews" : [
        {
            "buffer" : 0,
            "byteLength" : 212736,
            "byteOffset" : 0
        },
        {
            "buffer" : 0,
            "byteLength" : 212736,
            "byteOffset" : 212736
        },
        {
            "buffer" : 0,
            "byteLength" : 51516,
            "byteOffset" : 425472
        }
    ],
    "buffers" : [
        {
            "byteLength" : 476988,
            "uri" : "data:application/octet-stream;base64,"
        }
    ]
}
